{"title":"The Last Samurai(2003)1080p BDRip[Hindi-Tamil-Eng]AC3-DGrea8","uid":8186635,"size":3673558062,"categoryP":"video","categoryS":"hd___movies","magnet":"?xt=urn:btih:c0226865a448d60be2556556c70c9175325d17e5&amp;dn=The+Last+Samurai%282003%291080p+BDRip%5BHindi-Tamil-Eng%5DAC3-DGrea8&amp;tr=udp%3A%2F%2Ftracker.openbittorrent.com%3A80&amp;tr=udp%3A%2F%2Fopen.demonii.com%3A1337&amp;tr=udp%3A%2F%2Ftracker.coppersurfer.tk%3A6969&amp;tr=udp%3A%2F%2Fexodus.desync.com%3A6969","seeders":0,"leechers":2,"uploader":"DGrea8","files":-1,"time":1361738218,"description":"     The Last Samurai(2003) 1080p BDRip In[Hindi-Tamil-English]AC3-DGrea8\n\n\nSummary:-\n\n\nIn the 1870s, Captain Nathan Algren, a cynical veteran of the American Civil war who will work for anyone, is hired by Americans who want lucrative contracts with the Emperor of Japan to train the peasant conscripts for the first standing imperial army in modern warfare using firearms. The imperial Omura cabinet's first priority is to repress a rebellion of traditionalist Samurai -hereditary warriors- who remain devoted to the sacred dynasty but reject the Westernizing policy and even refuse firearms. Yet when his ill-prepared superior force sets out too soon, their panic allows the sword-wielding samurai to crush them. Badly wounded Algren's courageous stand makes the samurai leader Katsumoto spare his life; once nursed to health he learns to know and respect the old Japanese way, and participates as advisor in Katsumoto's failed attempt to save the Bushido tradition, but Omura gets repressive laws enacted- he must now choose to honor his loyalty to one of the embittered sides when ... Written by KGF Vissers\n\n\nCast:-\n\n\nKen Watanabe..............Katsumoto\nTom Cruise................Nathan Algren\nWilliam Atherton..........Winchester Rep\nChad Lindberg.............Winchester Rep Assistant\nRay Godshall Sr...........Convention Hall Attendee\nBilly Connolly............Zebulon Gant\nTony Goldwyn..............Colonel Bagley\nMasato Haradz.............Omura\nMasashi Odate.............Omura's Companion\nJohn Koyama...............Omura's Bodyguard\nTimothy Spall.............Simon Graham\nShichinosuke Nakamura.....Emperor Meiji\nTogo Igawa................General Hasegawa\nSatoshi Nikaido...........N.C.O.\nShintaro Wada.............Young Recruit\n\n\n\nVideo &amp; Audio Info.:-\n\nDirector: Edward Zwick\nWriters: John Logan (story), John Logan (screenplay)\nStars: Tom Cruise, Ken Watanabe, Billy Connolly\nRelease Date: 5 December 2003 (USA)\nFilming Locations: Santa Clarita, California, USA\nGenres: Action | Adventure | Drama | History | War\nBox Office\nBudget: $140,000,000 (estimated)\nOpening Weekend: $136,898 (Finland) (30 January 2004)\nGross: $111,110,575 (USA) (2 April 2004)\nRuntime: 154 min\n\n\nVideo\nID : 1\nFormat : AVC\nFormat/Info : Advanced Video Codec\nFormat profile : &lt;a class=&quot;__cf_email__&quot; href=&quot;/cdn-cgi/l/email-protection&quot; data-cfemail=&quot;377a565e59777b031907&quot;&gt;[email&amp;#160;protected]&lt;/a&gt;&lt;script cf-hash='f9e31' type=&quot;text/javascript&quot;&gt;\n/* &lt;![CDATA[ */!function(){try{var t=&quot;currentScript&quot;in document?document.currentScript:function(){for(var t=document.getElementsByTagName(&quot;script&quot;),e=t.length;e--;)if(t[e].getAttribute(&quot;cf-hash&quot;))return t[e]}();if(t&amp;&amp;t.previousSibling){var e,r,n,i,c=t.previousSibling,a=c.getAttribute(&quot;data-cfemail&quot;);if(a){for(e=&quot;&quot;,r=parseInt(a.substr(0,2),16),n=2;a.length-n;n+=2)i=parseInt(a.substr(n,2),16)^r,e+=String.fromCharCode(i);e=document.createTextNode(e),c.parentNode.replaceChild(e,c)}}}catch(u){}}();/* ]]&gt; */&lt;/script&gt;\nFormat settings, CABAC : Yes\nFormat settings, ReFrames : 4 frames\nFormat settings, GOP : M=3, N=32\nMuxing mode : Header stripping\nCodec ID : V_MPEG4/ISO/AVC\nDuration : 2h 27mn\nWidth : 1 920 pixels\nHeight : 800 pixels\nDisplay aspect ratio : 2.40:1\nFrame rate mode : Variable\nFrame rate : 25.000 fps\nColor space : YUV\nChroma subsampling : 4:2:0\nBit depth : 8 bits\nScan type : Progressive\n\nAudio #1\nID : 2\nFormat : AAC\nFormat/Info : Advanced Audio Codec\nFormat profile : LC\nCodec ID : A_AAC\nDuration : 2h 27mn\nChannel(s) : 6 channels\nChannel positions : Front: L C R, Side: L R, LFE\nSampling rate : 48.0 KHz\nCompression mode : Lossy\nTitle : English\nLanguage : English\n\nAudio #2\nID : 3\nFormat : AC-3\nFormat/Info : Audio Coding 3\nMode extension : CM (complete main)\nMuxing mode : Header stripping\nCodec ID : A_AC3\nDuration : 2h 27mn\nBit rate mode : Constant\nBit rate : 224 Kbps\nChannel(s) : 2 channels\nChannel positions : Front: L R\nSampling rate : 48.0 KHz\nBit depth : 16 bits\nCompression mode : Lossy\nDelay relative to video : 1s 0ms\nStream size : 237 MiB (7%)\nTitle : Hindi 2Ch.Ac3\nLanguage : Hindi\n\nAudio\nID : 1\nFormat : AC-3\nFormat/Info : Audio Coding 3\nMode extension : CM (complete main)\nMuxing mode : Header stripping\nCodec ID : A_AC3\nDuration : 2h 27mn\nBit rate mode : Constant\nBit rate : 224 Kbps\nChannel(s) : 2 channels\nChannel positions : Front: L R\nSampling rate : 48.0 KHz\nBit depth : 16 bits\nCompression mode : Lossy\nStream size : 237 MiB\nTitle : Taml 2Ch.Ac3\nLanguage : Tamil\n\nSubtitle Languages : English\n\n\n\nScreen Shoots:-\n\n     &lt;a href=&quot;\nhttp://www.shotpix.com/images/91326587250145344088.jpg&quot; rel=&quot;nofollow&quot; target=&quot;_NEW&quot;&gt;\nhttp://www.shotpix.com/images/91326587250145344088.jpg&lt;/a&gt;\n &lt;a href=&quot;\nhttp://www.shotpix.com/images/20756832181131000011.jpg&quot; rel=&quot;nofollow&quot; target=&quot;_NEW&quot;&gt;\nhttp://www.shotpix.com/images/20756832181131000011.jpg&lt;/a&gt;\n &lt;a href=&quot;\nhttp://www.shotpix.com/images/81705390580246630187.jpg&quot; rel=&quot;nofollow&quot; target=&quot;_NEW&quot;&gt;\nhttp://www.shotpix.com/images/81705390580246630187.jpg&lt;/a&gt;\n &lt;a href=&quot;\nhttp://www.shotpix.com/images/27732403304293582818.jpg&quot; rel=&quot;nofollow&quot; target=&quot;_NEW&quot;&gt;\nhttp://www.shotpix.com/images/27732403304293582818.jpg&lt;/a&gt;\n &lt;a href=&quot;\nhttp://www.shotpix.com/images/97322558932745023172.jpg&quot; rel=&quot;nofollow&quot; target=&quot;_NEW&quot;&gt;\nhttp://www.shotpix.com/images/97322558932745023172.jpg&lt;/a&gt;\n\n\nNote:--\n\n Check The Sample Video In This Torrent\t\t\t\n\t\t","torrent":{"xt":"urn:btih:c0226865a448d60be2556556c70c9175325d17e5","amp;dn":"The+Last+Samurai%282003%291080p+BDRip%5BHindi-Tamil-Eng%5DAC3-DGrea8","amp;tr":["udp%3A%2F%2Ftracker.openbittorrent.com%3A80","udp%3A%2F%2Fopen.demonii.com%3A1337","udp%3A%2F%2Ftracker.coppersurfer.tk%3A6969","udp%3A%2F%2Fexodus.desync.com%3A6969"],"infoHash":"c0226865a448d60be2556556c70c9175325d17e5","infoHashBuffer":{"type":"Buffer","data":[192,34,104,101,164,72,214,11,226,85,101,86,199,12,145,117,50,93,23,229]},"announce":[],"urlList":[]}}